<svg width="16" height="16" viewBox="0 0 16 16" fill="none" xmlns="http://www.w3.org/2000/svg">
<path d="M4.00033 13.3332C3.44477 13.3332 2.97255 13.1387 2.58366 12.7498C2.19477 12.3609 2.00033 11.8887 2.00033 11.3332H0.666992V3.99984C0.666992 3.63317 0.797548 3.31928 1.05866 3.05817C1.31977 2.79706 1.63366 2.6665 2.00033 2.6665H11.3337V5.33317H13.3337L15.3337 7.99984V11.3332H14.0003C14.0003 11.8887 13.8059 12.3609 13.417 12.7498C13.0281 13.1387 12.5559 13.3332 12.0003 13.3332C11.4448 13.3332 10.9725 13.1387 10.5837 12.7498C10.1948 12.3609 10.0003 11.8887 10.0003 11.3332H6.00033C6.00033 11.8887 5.80588 12.3609 5.41699 12.7498C5.0281 13.1387 4.55588 13.3332 4.00033 13.3332ZM4.00033 11.9998C4.18921 11.9998 4.34755 11.9359 4.47533 11.8082C4.6031 11.6804 4.66699 11.5221 4.66699 11.3332C4.66699 11.1443 4.6031 10.9859 4.47533 10.8582C4.34755 10.7304 4.18921 10.6665 4.00033 10.6665C3.81144 10.6665 3.6531 10.7304 3.52533 10.8582C3.39755 10.9859 3.33366 11.1443 3.33366 11.3332C3.33366 11.5221 3.39755 11.6804 3.52533 11.8082C3.6531 11.9359 3.81144 11.9998 4.00033 11.9998ZM2.00033 9.99984H2.53366C2.72255 9.79984 2.93921 9.63873 3.18366 9.5165C3.4281 9.39428 3.70033 9.33317 4.00033 9.33317C4.30033 9.33317 4.57255 9.39428 4.81699 9.5165C5.06144 9.63873 5.2781 9.79984 5.46699 9.99984H10.0003V3.99984H2.00033V9.99984ZM12.0003 11.9998C12.1892 11.9998 12.3475 11.9359 12.4753 11.8082C12.6031 11.6804 12.667 11.5221 12.667 11.3332C12.667 11.1443 12.6031 10.9859 12.4753 10.8582C12.3475 10.7304 12.1892 10.6665 12.0003 10.6665C11.8114 10.6665 11.6531 10.7304 11.5253 10.8582C11.3975 10.9859 11.3337 11.1443 11.3337 11.3332C11.3337 11.5221 11.3975 11.6804 11.5253 11.8082C11.6531 11.9359 11.8114 11.9998 12.0003 11.9998ZM11.3337 8.6665H14.167L12.667 6.6665H11.3337V8.6665Z" fill="#BDBDBD"/>
</svg>
