<svg width="24" height="24" viewBox="0 0 24 24" fill="none" xmlns="http://www.w3.org/2000/svg">
<g clip-path="url(#clip0_400_19)">
<path d="M23.715 10.1911C23.9735 9.93907 24.0648 9.56917 23.9533 9.22581C23.8417 8.88245 23.5504 8.63688 23.1931 8.58499L16.0513 7.54726C16.0458 7.54647 16.0409 7.54295 16.0384 7.53784L12.8445 1.06627C12.6847 0.742501 12.3611 0.541313 12.0001 0.541313C11.6391 0.541313 11.3155 0.742454 11.1557 1.06622L7.96179 7.5378C7.95926 7.54291 7.95438 7.54642 7.9488 7.54726L0.806962 8.58503C0.44968 8.63692 0.158398 8.8825 0.0467886 9.22586C-0.0647741 9.56931 0.0264917 9.93916 0.285102 10.1912L5.45303 15.2286C5.45711 15.2326 5.45894 15.2382 5.45796 15.2439L4.23798 22.3568C4.141 22.9221 4.5888 23.4586 5.16513 23.4586C5.31475 23.4586 5.46517 23.4225 5.60421 23.3495L11.9921 19.9911C11.9971 19.9884 12.003 19.9884 12.0081 19.9911L18.3959 23.3494C18.7155 23.5175 19.0955 23.49 19.3876 23.2777C19.6797 23.0655 19.8233 22.7125 19.7622 22.3567L18.5422 15.2438C18.5412 15.2382 18.543 15.2325 18.5471 15.2285L23.715 10.1911ZM17.6311 15.4002L18.851 22.5131C18.8523 22.5206 18.8528 22.5236 18.8442 22.53C18.8355 22.5362 18.8328 22.5348 18.826 22.5313L12.4383 19.173C12.1639 19.0287 11.8362 19.0287 11.5618 19.173L5.17403 22.5313C5.16733 22.5349 5.16456 22.5362 5.15594 22.53C5.14731 22.5237 5.14778 22.5206 5.1491 22.5131L6.36902 15.4002C6.42147 15.0946 6.32022 14.783 6.09822 14.5667L0.930337 9.52919C0.9249 9.52389 0.92265 9.52174 0.925978 9.51152C0.929306 9.50135 0.9324 9.50092 0.9399 9.4998L8.0817 8.46203C8.3884 8.41745 8.65348 8.22494 8.79068 7.94697L11.9846 1.47539C11.9879 1.4686 11.9893 1.46578 12 1.46578C12.0108 1.46578 12.0122 1.4686 12.0155 1.47539L15.2094 7.94716C15.3466 8.22508 15.6116 8.41769 15.9183 8.46222L23.0601 9.49994C23.0676 9.50106 23.0707 9.50149 23.074 9.51166C23.0774 9.52183 23.0751 9.52403 23.0697 9.52933L17.9019 14.5668C17.6799 14.7831 17.5786 15.0947 17.6311 15.4002Z" fill="#FFFF00" stroke="#FFFF00" stroke-width="1.5625"/>
</g>
<defs>
<clipPath id="clip0_400_19">
<rect width="24" height="24" fill="white"/>
</clipPath>
</defs>
</svg>
